<mxfile host="app.diagrams.net" modified="2022-11-15T18:26:20.761Z" agent="5.0 (Windows NT 6.1; Win64; x64) AppleWebKit/537.36 (KHTML, like Gecko) Chrome/107.0.0.0 Safari/537.36" etag="4QxpJG86YR-XQVDgnVs8" version="20.5.3" type="github" pages="3">
  <diagram id="AZlSnkwvpcaCTsdWbq4d" name="#!">
    <mxGraphModel dx="1578" dy="1024" grid="1" gridSize="10" guides="1" tooltips="1" connect="1" arrows="1" fold="1" page="1" pageScale="1" pageWidth="827" pageHeight="1169" math="0" shadow="0">
      <root>
        <mxCell id="0" />
        <mxCell id="1" parent="0" />
        <mxCell id="2c6hMwz7oplb5ZyV-7eH-5" style="edgeStyle=orthogonalEdgeStyle;rounded=0;orthogonalLoop=1;jettySize=auto;html=1;entryX=0.5;entryY=0;entryDx=0;entryDy=0;" edge="1" parent="1" source="2c6hMwz7oplb5ZyV-7eH-1" target="2c6hMwz7oplb5ZyV-7eH-4">
          <mxGeometry relative="1" as="geometry" />
        </mxCell>
        <mxCell id="2c6hMwz7oplb5ZyV-7eH-1" value="begin" style="ellipse;whiteSpace=wrap;html=1;" vertex="1" parent="1">
          <mxGeometry x="354" y="20" width="120" height="80" as="geometry" />
        </mxCell>
        <mxCell id="2c6hMwz7oplb5ZyV-7eH-4" value="nhập n" style="shape=parallelogram;perimeter=parallelogramPerimeter;whiteSpace=wrap;html=1;fixedSize=1;" vertex="1" parent="1">
          <mxGeometry x="220" y="170" width="390" height="60" as="geometry" />
        </mxCell>
        <mxCell id="2c6hMwz7oplb5ZyV-7eH-12" value="false" style="edgeStyle=orthogonalEdgeStyle;rounded=0;orthogonalLoop=1;jettySize=auto;html=1;entryX=0;entryY=1;entryDx=0;entryDy=0;" edge="1" parent="1" source="2c6hMwz7oplb5ZyV-7eH-10" target="2c6hMwz7oplb5ZyV-7eH-4">
          <mxGeometry relative="1" as="geometry">
            <Array as="points">
              <mxPoint x="220" y="320" />
            </Array>
          </mxGeometry>
        </mxCell>
        <mxCell id="2c6hMwz7oplb5ZyV-7eH-16" value="true" style="edgeStyle=orthogonalEdgeStyle;rounded=0;orthogonalLoop=1;jettySize=auto;html=1;entryX=0.5;entryY=0;entryDx=0;entryDy=0;" edge="1" parent="1" source="2c6hMwz7oplb5ZyV-7eH-10" target="2c6hMwz7oplb5ZyV-7eH-15">
          <mxGeometry relative="1" as="geometry" />
        </mxCell>
        <mxCell id="2c6hMwz7oplb5ZyV-7eH-10" value="n &amp;gt; 0" style="rhombus;whiteSpace=wrap;html=1;" vertex="1" parent="1">
          <mxGeometry x="375" y="280" width="80" height="80" as="geometry" />
        </mxCell>
        <mxCell id="2c6hMwz7oplb5ZyV-7eH-18" style="edgeStyle=orthogonalEdgeStyle;rounded=0;orthogonalLoop=1;jettySize=auto;html=1;entryX=0.5;entryY=0;entryDx=0;entryDy=0;" edge="1" parent="1" source="2c6hMwz7oplb5ZyV-7eH-15" target="2c6hMwz7oplb5ZyV-7eH-17">
          <mxGeometry relative="1" as="geometry" />
        </mxCell>
        <mxCell id="2c6hMwz7oplb5ZyV-7eH-15" value="a = 1&amp;nbsp;&lt;br&gt;i = 1" style="rounded=0;whiteSpace=wrap;html=1;" vertex="1" parent="1">
          <mxGeometry x="355" y="430" width="120" height="60" as="geometry" />
        </mxCell>
        <mxCell id="2c6hMwz7oplb5ZyV-7eH-20" style="edgeStyle=orthogonalEdgeStyle;rounded=0;orthogonalLoop=1;jettySize=auto;html=1;entryX=0.5;entryY=0;entryDx=0;entryDy=0;" edge="1" parent="1" source="2c6hMwz7oplb5ZyV-7eH-17" target="2c6hMwz7oplb5ZyV-7eH-19">
          <mxGeometry relative="1" as="geometry" />
        </mxCell>
        <mxCell id="2c6hMwz7oplb5ZyV-7eH-17" value="a = a * i" style="rounded=0;whiteSpace=wrap;html=1;" vertex="1" parent="1">
          <mxGeometry x="354" y="550" width="120" height="60" as="geometry" />
        </mxCell>
        <mxCell id="2c6hMwz7oplb5ZyV-7eH-22" style="edgeStyle=orthogonalEdgeStyle;rounded=0;orthogonalLoop=1;jettySize=auto;html=1;entryX=0.5;entryY=0;entryDx=0;entryDy=0;" edge="1" parent="1" source="2c6hMwz7oplb5ZyV-7eH-19" target="2c6hMwz7oplb5ZyV-7eH-21">
          <mxGeometry relative="1" as="geometry" />
        </mxCell>
        <mxCell id="2c6hMwz7oplb5ZyV-7eH-19" value="i = i + 1" style="whiteSpace=wrap;html=1;rounded=0;" vertex="1" parent="1">
          <mxGeometry x="355" y="670" width="120" height="60" as="geometry" />
        </mxCell>
        <mxCell id="2c6hMwz7oplb5ZyV-7eH-21" value="end" style="ellipse;whiteSpace=wrap;html=1;" vertex="1" parent="1">
          <mxGeometry x="355" y="770" width="120" height="80" as="geometry" />
        </mxCell>
      </root>
    </mxGraphModel>
  </diagram>
  <diagram id="3FbPeP4s_GpLzubolSyU" name="#2">
    <mxGraphModel dx="868" dy="563" grid="1" gridSize="10" guides="1" tooltips="1" connect="1" arrows="1" fold="1" page="1" pageScale="1" pageWidth="827" pageHeight="1169" math="0" shadow="0">
      <root>
        <mxCell id="0" />
        <mxCell id="1" parent="0" />
        <mxCell id="ZZcM9aMPD34E-PnuvQsX-1" style="edgeStyle=orthogonalEdgeStyle;rounded=0;orthogonalLoop=1;jettySize=auto;html=1;entryX=0.5;entryY=0;entryDx=0;entryDy=0;" edge="1" parent="1" source="ZZcM9aMPD34E-PnuvQsX-2" target="ZZcM9aMPD34E-PnuvQsX-3">
          <mxGeometry relative="1" as="geometry" />
        </mxCell>
        <mxCell id="ZZcM9aMPD34E-PnuvQsX-2" value="begin" style="ellipse;whiteSpace=wrap;html=1;" vertex="1" parent="1">
          <mxGeometry x="354" y="20" width="120" height="80" as="geometry" />
        </mxCell>
        <mxCell id="ZZcM9aMPD34E-PnuvQsX-3" value="nhập n" style="shape=parallelogram;perimeter=parallelogramPerimeter;whiteSpace=wrap;html=1;fixedSize=1;" vertex="1" parent="1">
          <mxGeometry x="220" y="170" width="390" height="60" as="geometry" />
        </mxCell>
        <mxCell id="ZZcM9aMPD34E-PnuvQsX-4" value="false" style="edgeStyle=orthogonalEdgeStyle;rounded=0;orthogonalLoop=1;jettySize=auto;html=1;entryX=0;entryY=1;entryDx=0;entryDy=0;" edge="1" parent="1" source="ZZcM9aMPD34E-PnuvQsX-6" target="ZZcM9aMPD34E-PnuvQsX-3">
          <mxGeometry relative="1" as="geometry">
            <Array as="points">
              <mxPoint x="220" y="320" />
            </Array>
          </mxGeometry>
        </mxCell>
        <mxCell id="ZZcM9aMPD34E-PnuvQsX-5" value="true" style="edgeStyle=orthogonalEdgeStyle;rounded=0;orthogonalLoop=1;jettySize=auto;html=1;entryX=0.5;entryY=0;entryDx=0;entryDy=0;" edge="1" parent="1" source="ZZcM9aMPD34E-PnuvQsX-6" target="ZZcM9aMPD34E-PnuvQsX-8">
          <mxGeometry relative="1" as="geometry" />
        </mxCell>
        <mxCell id="ZZcM9aMPD34E-PnuvQsX-6" value="n &amp;gt; 0" style="rhombus;whiteSpace=wrap;html=1;" vertex="1" parent="1">
          <mxGeometry x="375" y="280" width="80" height="80" as="geometry" />
        </mxCell>
        <mxCell id="ZZcM9aMPD34E-PnuvQsX-7" style="edgeStyle=orthogonalEdgeStyle;rounded=0;orthogonalLoop=1;jettySize=auto;html=1;entryX=0.5;entryY=0;entryDx=0;entryDy=0;" edge="1" parent="1" source="ZZcM9aMPD34E-PnuvQsX-8" target="ZZcM9aMPD34E-PnuvQsX-10">
          <mxGeometry relative="1" as="geometry" />
        </mxCell>
        <mxCell id="ZZcM9aMPD34E-PnuvQsX-8" value="b = 1&amp;nbsp;&lt;br&gt;i = 1" style="rounded=0;whiteSpace=wrap;html=1;" vertex="1" parent="1">
          <mxGeometry x="355" y="430" width="120" height="60" as="geometry" />
        </mxCell>
        <mxCell id="ZZcM9aMPD34E-PnuvQsX-9" style="edgeStyle=orthogonalEdgeStyle;rounded=0;orthogonalLoop=1;jettySize=auto;html=1;entryX=0.5;entryY=0;entryDx=0;entryDy=0;" edge="1" parent="1" source="ZZcM9aMPD34E-PnuvQsX-10" target="ZZcM9aMPD34E-PnuvQsX-12">
          <mxGeometry relative="1" as="geometry" />
        </mxCell>
        <mxCell id="ZZcM9aMPD34E-PnuvQsX-10" value="b = b *(1/ i)" style="rounded=0;whiteSpace=wrap;html=1;" vertex="1" parent="1">
          <mxGeometry x="354" y="550" width="120" height="60" as="geometry" />
        </mxCell>
        <mxCell id="ZZcM9aMPD34E-PnuvQsX-11" style="edgeStyle=orthogonalEdgeStyle;rounded=0;orthogonalLoop=1;jettySize=auto;html=1;entryX=0.5;entryY=0;entryDx=0;entryDy=0;" edge="1" parent="1" source="ZZcM9aMPD34E-PnuvQsX-12" target="ZZcM9aMPD34E-PnuvQsX-13">
          <mxGeometry relative="1" as="geometry" />
        </mxCell>
        <mxCell id="ZZcM9aMPD34E-PnuvQsX-12" value="i = i + 1" style="whiteSpace=wrap;html=1;rounded=0;" vertex="1" parent="1">
          <mxGeometry x="355" y="670" width="120" height="60" as="geometry" />
        </mxCell>
        <mxCell id="ZZcM9aMPD34E-PnuvQsX-13" value="end" style="ellipse;whiteSpace=wrap;html=1;" vertex="1" parent="1">
          <mxGeometry x="355" y="770" width="120" height="80" as="geometry" />
        </mxCell>
      </root>
    </mxGraphModel>
  </diagram>
  <diagram id="-R2GJnbIsZVRJpB3VVw4" name="#3 &amp; #4">
    <mxGraphModel dx="868" dy="530" grid="1" gridSize="10" guides="1" tooltips="1" connect="1" arrows="1" fold="1" page="1" pageScale="1" pageWidth="827" pageHeight="1169" math="0" shadow="0">
      <root>
        <mxCell id="0" />
        <mxCell id="1" parent="0" />
        <mxCell id="KkhCZPxBMDUd_tkWZsrW-1" style="edgeStyle=orthogonalEdgeStyle;rounded=0;orthogonalLoop=1;jettySize=auto;html=1;entryX=0.5;entryY=0;entryDx=0;entryDy=0;" edge="1" parent="1" source="KkhCZPxBMDUd_tkWZsrW-2" target="KkhCZPxBMDUd_tkWZsrW-3">
          <mxGeometry relative="1" as="geometry" />
        </mxCell>
        <mxCell id="KkhCZPxBMDUd_tkWZsrW-2" value="begin" style="ellipse;whiteSpace=wrap;html=1;" vertex="1" parent="1">
          <mxGeometry x="354" y="20" width="120" height="80" as="geometry" />
        </mxCell>
        <mxCell id="KkhCZPxBMDUd_tkWZsrW-3" value="nhập n" style="shape=parallelogram;perimeter=parallelogramPerimeter;whiteSpace=wrap;html=1;fixedSize=1;" vertex="1" parent="1">
          <mxGeometry x="220" y="170" width="390" height="60" as="geometry" />
        </mxCell>
        <mxCell id="KkhCZPxBMDUd_tkWZsrW-4" value="false" style="edgeStyle=orthogonalEdgeStyle;rounded=0;orthogonalLoop=1;jettySize=auto;html=1;entryX=0;entryY=1;entryDx=0;entryDy=0;" edge="1" parent="1" source="KkhCZPxBMDUd_tkWZsrW-6" target="KkhCZPxBMDUd_tkWZsrW-3">
          <mxGeometry relative="1" as="geometry">
            <Array as="points">
              <mxPoint x="220" y="320" />
            </Array>
          </mxGeometry>
        </mxCell>
        <mxCell id="KkhCZPxBMDUd_tkWZsrW-5" value="true" style="edgeStyle=orthogonalEdgeStyle;rounded=0;orthogonalLoop=1;jettySize=auto;html=1;entryX=0.5;entryY=0;entryDx=0;entryDy=0;" edge="1" parent="1" source="KkhCZPxBMDUd_tkWZsrW-6" target="KkhCZPxBMDUd_tkWZsrW-8">
          <mxGeometry relative="1" as="geometry" />
        </mxCell>
        <mxCell id="KkhCZPxBMDUd_tkWZsrW-6" value="n &amp;gt; 0" style="rhombus;whiteSpace=wrap;html=1;" vertex="1" parent="1">
          <mxGeometry x="375" y="280" width="80" height="80" as="geometry" />
        </mxCell>
        <mxCell id="KkhCZPxBMDUd_tkWZsrW-15" style="edgeStyle=orthogonalEdgeStyle;rounded=0;orthogonalLoop=1;jettySize=auto;html=1;entryX=0.5;entryY=0;entryDx=0;entryDy=0;" edge="1" parent="1" source="KkhCZPxBMDUd_tkWZsrW-8" target="KkhCZPxBMDUd_tkWZsrW-14">
          <mxGeometry relative="1" as="geometry" />
        </mxCell>
        <mxCell id="KkhCZPxBMDUd_tkWZsrW-8" value="c = 1&lt;br&gt;d = 1&amp;nbsp;&lt;br&gt;i = 1" style="rounded=0;whiteSpace=wrap;html=1;" vertex="1" parent="1">
          <mxGeometry x="355" y="430" width="120" height="60" as="geometry" />
        </mxCell>
        <mxCell id="KkhCZPxBMDUd_tkWZsrW-20" value="true" style="edgeStyle=orthogonalEdgeStyle;rounded=0;orthogonalLoop=1;jettySize=auto;html=1;entryX=0.5;entryY=0;entryDx=0;entryDy=0;" edge="1" parent="1" source="KkhCZPxBMDUd_tkWZsrW-14" target="KkhCZPxBMDUd_tkWZsrW-19">
          <mxGeometry relative="1" as="geometry" />
        </mxCell>
        <mxCell id="KkhCZPxBMDUd_tkWZsrW-22" value="false" style="edgeStyle=orthogonalEdgeStyle;rounded=0;orthogonalLoop=1;jettySize=auto;html=1;entryX=0.5;entryY=0;entryDx=0;entryDy=0;" edge="1" parent="1" source="KkhCZPxBMDUd_tkWZsrW-14" target="KkhCZPxBMDUd_tkWZsrW-21">
          <mxGeometry relative="1" as="geometry" />
        </mxCell>
        <mxCell id="KkhCZPxBMDUd_tkWZsrW-14" value="n chẵn" style="rhombus;whiteSpace=wrap;html=1;" vertex="1" parent="1">
          <mxGeometry x="375" y="530" width="80" height="80" as="geometry" />
        </mxCell>
        <mxCell id="KkhCZPxBMDUd_tkWZsrW-24" style="edgeStyle=orthogonalEdgeStyle;rounded=0;orthogonalLoop=1;jettySize=auto;html=1;entryX=0;entryY=0.5;entryDx=0;entryDy=0;" edge="1" parent="1" source="KkhCZPxBMDUd_tkWZsrW-19" target="KkhCZPxBMDUd_tkWZsrW-23">
          <mxGeometry relative="1" as="geometry" />
        </mxCell>
        <mxCell id="KkhCZPxBMDUd_tkWZsrW-19" value="d =&amp;nbsp; d * i" style="rounded=0;whiteSpace=wrap;html=1;" vertex="1" parent="1">
          <mxGeometry x="130" y="630" width="120" height="60" as="geometry" />
        </mxCell>
        <mxCell id="KkhCZPxBMDUd_tkWZsrW-25" style="edgeStyle=orthogonalEdgeStyle;rounded=0;orthogonalLoop=1;jettySize=auto;html=1;entryX=1;entryY=0.5;entryDx=0;entryDy=0;" edge="1" parent="1" source="KkhCZPxBMDUd_tkWZsrW-21" target="KkhCZPxBMDUd_tkWZsrW-23">
          <mxGeometry relative="1" as="geometry" />
        </mxCell>
        <mxCell id="KkhCZPxBMDUd_tkWZsrW-21" value="c = c * i" style="rounded=0;whiteSpace=wrap;html=1;" vertex="1" parent="1">
          <mxGeometry x="620" y="630" width="120" height="60" as="geometry" />
        </mxCell>
        <mxCell id="X-NVt4iX3wD2aLaY2J4h-2" style="edgeStyle=orthogonalEdgeStyle;rounded=0;orthogonalLoop=1;jettySize=auto;html=1;" edge="1" parent="1" source="KkhCZPxBMDUd_tkWZsrW-23" target="X-NVt4iX3wD2aLaY2J4h-1">
          <mxGeometry relative="1" as="geometry" />
        </mxCell>
        <mxCell id="KkhCZPxBMDUd_tkWZsrW-23" value="i = i +1" style="rounded=0;whiteSpace=wrap;html=1;" vertex="1" parent="1">
          <mxGeometry x="360" y="740" width="120" height="60" as="geometry" />
        </mxCell>
        <mxCell id="X-NVt4iX3wD2aLaY2J4h-1" value="end" style="ellipse;whiteSpace=wrap;html=1;" vertex="1" parent="1">
          <mxGeometry x="354" y="860" width="120" height="80" as="geometry" />
        </mxCell>
      </root>
    </mxGraphModel>
  </diagram>
</mxfile>
